<?xml version="1.0" encoding="UTF-8" standalone="no"?><svg xmlns="http://www.w3.org/2000/svg" xmlns:xlink="http://www.w3.org/1999/xlink" contentScriptType="application/ecmascript" contentStyleType="text/css" height="495px" preserveAspectRatio="none" style="width:331px;height:495px;" version="1.1" viewBox="0 0 331 495" width="331px" zoomAndPan="magnify"><defs><filter height="300%" id="fe5pymrq0dx78" width="300%" x="-1" y="-1"><feGaussianBlur result="blurOut" stdDeviation="2.0"/><feColorMatrix in="blurOut" result="blurOut2" type="matrix" values="0 0 0 0 0 0 0 0 0 0 0 0 0 0 0 0 0 0 .4 0"/><feOffset dx="4.0" dy="4.0" in="blurOut2" result="blurOut3"/><feBlend in="SourceGraphic" in2="blurOut3" mode="normal"/></filter></defs><g><rect fill="#008080" filter="url(#fe5pymrq0dx78)" height="33.9688" rx="12.5" ry="12.5" style="stroke: #A80036; stroke-width: 1.5;" width="44" x="146" y="10"/><text fill="#FFFFFF" font-family="sans-serif" font-size="12" lengthAdjust="spacingAndGlyphs" textLength="24" x="156" y="31.1387">开始</text><rect fill="#191970" filter="url(#fe5pymrq0dx78)" height="33.9688" rx="12.5" ry="12.5" style="stroke: #A80036; stroke-width: 1.5;" width="140" x="98" y="63.9688"/><text fill="#FFFFFF" font-family="sans-serif" font-size="12" lengthAdjust="spacingAndGlyphs" textLength="120" x="108" y="85.1074">将矩阵行列按顺序编号</text><rect fill="#F0E68C" filter="url(#fe5pymrq0dx78)" height="321.8823" style="stroke: #000000; stroke-width: 2.0;" width="310" x="10" y="108.7393"/><path d="M90,109.7393 L90,118.0361 L80,128.0361 L10,128.0361 " fill="none" style="stroke: #000000; stroke-width: 2.0;"/><text fill="#0000FF" font-family="sans-serif" font-size="14" lengthAdjust="spacingAndGlyphs" textLength="70" x="13" y="122.7344">启发式算法</text><rect fill="#008080" filter="url(#fe5pymrq0dx78)" height="33.9688" rx="12.5" ry="12.5" style="stroke: #A80036; stroke-width: 1.5;" width="205" x="65.5" y="145.0361"/><text fill="#FFFFFF" font-family="sans-serif" font-size="12" lengthAdjust="spacingAndGlyphs" textLength="185" x="75.5" y="166.1748">初始化匹配结果向量match_array</text><rect fill="#00BFFF" filter="url(#fe5pymrq0dx78)" height="33.9688" rx="12.5" ry="12.5" style="stroke: #A80036; stroke-width: 1.5;" width="248" x="44" y="254.7153"/><text fill="#FFFFFF" font-family="sans-serif" font-size="12" lengthAdjust="spacingAndGlyphs" textLength="228" x="54" y="275.854">找出当前矩阵中最小元素位置，存储行列号</text><rect fill="#00BFFF" filter="url(#fe5pymrq0dx78)" height="33.9688" rx="12.5" ry="12.5" style="stroke: #A80036; stroke-width: 1.5;" width="173" x="81.5" y="308.6841"/><text fill="#FFFFFF" font-family="sans-serif" font-size="12" lengthAdjust="spacingAndGlyphs" textLength="153" x="91.5" y="329.8228">match_array[行号] = 列号</text><rect fill="#00BFFF" filter="url(#fe5pymrq0dx78)" height="33.9688" rx="12.5" ry="12.5" style="stroke: #A80036; stroke-width: 1.5;" width="164" x="86" y="362.6528"/><text fill="#FFFFFF" font-family="sans-serif" font-size="12" lengthAdjust="spacingAndGlyphs" textLength="144" x="96" y="383.7915">删除选择元素对应的行和列</text><polygon fill="#FEFECE" filter="url(#fe5pymrq0dx78)" points="101.5,199.0049,234.5,199.0049,246.5,211.0049,234.5,223.0049,101.5,223.0049,89.5,211.0049,101.5,199.0049" style="stroke: #A80036; stroke-width: 1.5;"/><text fill="#000000" font-family="sans-serif" font-size="11" lengthAdjust="spacingAndGlyphs" textLength="11" x="172" y="233.2153">否</text><text fill="#000000" font-family="sans-serif" font-size="11" lengthAdjust="spacingAndGlyphs" textLength="133" x="101.5" y="214.813">循环次数 &gt; 矩阵初始行数?</text><text fill="#000000" font-family="sans-serif" font-size="11" lengthAdjust="spacingAndGlyphs" textLength="11" x="78.5" y="208.4106">是</text><rect fill="#008080" filter="url(#fe5pymrq0dx78)" height="33.9688" rx="12.5" ry="12.5" style="stroke: #A80036; stroke-width: 1.5;" width="164" x="86" y="450.6216"/><text fill="#FFFFFF" font-family="sans-serif" font-size="12" lengthAdjust="spacingAndGlyphs" textLength="144" x="96" y="471.7603">返回启发式算法的匹配结果</text><line style="stroke: #A80036; stroke-width: 1.5;" x1="168" x2="168" y1="43.9688" y2="63.9688"/><polygon fill="#A80036" points="164,53.9688,168,63.9688,172,53.9688,168,57.9688" style="stroke: #A80036; stroke-width: 1.0;"/><line style="stroke: #A80036; stroke-width: 1.5;" x1="168" x2="168" y1="288.6841" y2="308.6841"/><polygon fill="#A80036" points="164,298.6841,168,308.6841,172,298.6841,168,302.6841" style="stroke: #A80036; stroke-width: 1.0;"/><line style="stroke: #A80036; stroke-width: 1.5;" x1="168" x2="168" y1="342.6528" y2="362.6528"/><polygon fill="#A80036" points="164,352.6528,168,362.6528,172,352.6528,168,356.6528" style="stroke: #A80036; stroke-width: 1.0;"/><line style="stroke: #A80036; stroke-width: 1.5;" x1="168" x2="168" y1="223.0049" y2="254.7153"/><polygon fill="#A80036" points="164,244.7153,168,254.7153,172,244.7153,168,248.7153" style="stroke: #A80036; stroke-width: 1.0;"/><line style="stroke: #A80036; stroke-width: 1.5;" x1="168" x2="168" y1="396.6216" y2="406.6216"/><line style="stroke: #A80036; stroke-width: 1.5;" x1="168" x2="304" y1="406.6216" y2="406.6216"/><polygon fill="#A80036" points="300,317.2661,304,307.2661,308,317.2661,304,313.2661" style="stroke: #A80036; stroke-width: 1.5;"/><line style="stroke: #A80036; stroke-width: 1.5;" x1="304" x2="304" y1="211.0049" y2="406.6216"/><line style="stroke: #A80036; stroke-width: 1.5;" x1="304" x2="246.5" y1="211.0049" y2="211.0049"/><polygon fill="#A80036" points="256.5,207.0049,246.5,211.0049,256.5,215.0049,252.5,211.0049" style="stroke: #A80036; stroke-width: 1.0;"/><line style="stroke: #A80036; stroke-width: 1.5;" x1="89.5" x2="32" y1="211.0049" y2="211.0049"/><polygon fill="#A80036" points="28,303.2661,32,313.2661,36,303.2661,32,307.2661" style="stroke: #A80036; stroke-width: 1.5;"/><line style="stroke: #A80036; stroke-width: 1.5;" x1="32" x2="32" y1="211.0049" y2="418.6216"/><line style="stroke: #A80036; stroke-width: 1.5;" x1="32" x2="168" y1="418.6216" y2="418.6216"/><line style="stroke: #A80036; stroke-width: 1.5;" x1="168" x2="168" y1="418.6216" y2="450.6216"/><polygon fill="#A80036" points="164,440.6216,168,450.6216,172,440.6216,168,444.6216" style="stroke: #A80036; stroke-width: 1.0;"/><line style="stroke: #A80036; stroke-width: 1.5;" x1="168" x2="168" y1="179.0049" y2="199.0049"/><polygon fill="#A80036" points="164,189.0049,168,199.0049,172,189.0049,168,193.0049" style="stroke: #A80036; stroke-width: 1.0;"/><line style="stroke: #A80036; stroke-width: 1.5;" x1="168" x2="168" y1="97.9375" y2="145.0361"/><polygon fill="#A80036" points="164,135.0361,168,145.0361,172,135.0361,168,139.0361" style="stroke: #A80036; stroke-width: 1.0;"/><!--MD5=[1d83701bca291bc693809970470e5c2b]
@startuml
skinparam partition{
  BackgroundColor #khaki
  FontColor #blue
}
skinparam activity{
  FontColor #white
  BackgroundColor #teal
}
:开始;
#MidnightBlue:将矩阵行列按顺序编号;
partition "启发式算法" {
  :初始化匹配结果向量match_array;
  while (循环次数 > 矩阵初始行数?) is (否)
  #DeepSkyBlue:找出当前矩阵中最小元素位置，存储行列号;
  #DeepSkyBlue:match_array[行号] = 列号;
  #DeepSkyBlue:删除选择元素对应的行和列;
  endwhile (是)
}

:返回启发式算法的匹配结果;
@enduml

PlantUML version 1.2019.13(Tue Dec 10 17:18:29 UTC 2019)
(GPL source distribution)
Java Runtime: Java(TM) SE Runtime Environment
JVM: Java HotSpot(TM) 64-Bit Server VM
Java Version: 1.7.0_25-b15
Operating System: Linux
Default Encoding: UTF-8
Language: en
Country: US
--></g></svg>